<mxfile host="app.diagrams.net" agent="Mozilla/5.0 (Windows NT 10.0; Win64; x64) AppleWebKit/537.36 (KHTML, like Gecko) Chrome/128.0.0.0 Safari/537.36" version="24.7.7">
  <diagram name="Página-1" id="HWx0XtNJmtTPeDNLsKCa">
    <mxGraphModel dx="3827" dy="2660" grid="1" gridSize="10" guides="1" tooltips="1" connect="1" arrows="1" fold="1" page="1" pageScale="1" pageWidth="827" pageHeight="1169" math="0" shadow="0">
      <root>
        <mxCell id="0" />
        <mxCell id="1" parent="0" />
        <mxCell id="ggdyMHVkOK_L9-JbVkDp-1" value="Categoría" style="swimlane;fontStyle=1;align=center;verticalAlign=top;childLayout=stackLayout;horizontal=1;startSize=26;horizontalStack=0;resizeParent=1;resizeParentMax=0;resizeLast=0;collapsible=1;marginBottom=0;whiteSpace=wrap;html=1;" parent="1" vertex="1">
          <mxGeometry x="392" y="595" width="160" height="78" as="geometry" />
        </mxCell>
        <mxCell id="ggdyMHVkOK_L9-JbVkDp-31" value="+ nombre: string&lt;div&gt;+ descripcion: string&lt;/div&gt;" style="text;strokeColor=none;fillColor=none;align=left;verticalAlign=top;spacingLeft=4;spacingRight=4;overflow=hidden;rotatable=0;points=[[0,0.5],[1,0.5]];portConstraint=eastwest;whiteSpace=wrap;html=1;" parent="ggdyMHVkOK_L9-JbVkDp-1" vertex="1">
          <mxGeometry y="26" width="160" height="44" as="geometry" />
        </mxCell>
        <mxCell id="ggdyMHVkOK_L9-JbVkDp-3" value="" style="line;strokeWidth=1;fillColor=none;align=left;verticalAlign=middle;spacingTop=-1;spacingLeft=3;spacingRight=3;rotatable=0;labelPosition=right;points=[];portConstraint=eastwest;strokeColor=inherit;" parent="ggdyMHVkOK_L9-JbVkDp-1" vertex="1">
          <mxGeometry y="70" width="160" height="8" as="geometry" />
        </mxCell>
        <mxCell id="ggdyMHVkOK_L9-JbVkDp-36" style="edgeStyle=orthogonalEdgeStyle;rounded=0;orthogonalLoop=1;jettySize=auto;html=1;entryX=0;entryY=0.5;entryDx=0;entryDy=0;endArrow=none;endFill=0;" parent="1" source="ggdyMHVkOK_L9-JbVkDp-5" target="ggdyMHVkOK_L9-JbVkDp-15" edge="1">
          <mxGeometry relative="1" as="geometry" />
        </mxCell>
        <mxCell id="ggdyMHVkOK_L9-JbVkDp-5" value="Cliente" style="swimlane;fontStyle=1;align=center;verticalAlign=top;childLayout=stackLayout;horizontal=1;startSize=26;horizontalStack=0;resizeParent=1;resizeParentMax=0;resizeLast=0;collapsible=1;marginBottom=0;whiteSpace=wrap;html=1;" parent="1" vertex="1">
          <mxGeometry x="257" y="270" width="230" height="128" as="geometry" />
        </mxCell>
        <mxCell id="ggdyMHVkOK_L9-JbVkDp-6" value="+ nombre: string&lt;div&gt;+ email: string&lt;/div&gt;&lt;div&gt;+ telefono: string&lt;/div&gt;&lt;div&gt;+ arrayDirecciones(direccion: Direccion)&lt;/div&gt;" style="text;strokeColor=none;fillColor=none;align=left;verticalAlign=top;spacingLeft=4;spacingRight=4;overflow=hidden;rotatable=0;points=[[0,0.5],[1,0.5]];portConstraint=eastwest;whiteSpace=wrap;html=1;" parent="ggdyMHVkOK_L9-JbVkDp-5" vertex="1">
          <mxGeometry y="26" width="230" height="94" as="geometry" />
        </mxCell>
        <mxCell id="ggdyMHVkOK_L9-JbVkDp-7" value="" style="line;strokeWidth=1;fillColor=none;align=left;verticalAlign=middle;spacingTop=-1;spacingLeft=3;spacingRight=3;rotatable=0;labelPosition=right;points=[];portConstraint=eastwest;strokeColor=inherit;" parent="ggdyMHVkOK_L9-JbVkDp-5" vertex="1">
          <mxGeometry y="120" width="230" height="8" as="geometry" />
        </mxCell>
        <mxCell id="ggdyMHVkOK_L9-JbVkDp-12" value="&lt;ul&gt;&lt;li&gt;&lt;h1 style=&quot;page-break-before: always&quot; class=&quot;western&quot;&gt;&lt;font style=&quot;font-size: 14px;&quot;&gt;Joseph y Luis&lt;/font&gt;&lt;/h1&gt;&lt;p style=&quot;margin-bottom: 0cm&quot;&gt;Ejercicio: Sistema de Gestión de Pedidos&lt;/p&gt;&lt;p style=&quot;margin-bottom: 0cm&quot;&gt;Crea un diagrama de clases donde queremos modelar un sistema donde los clientes pueden hacer pedidos&lt;/p&gt;&lt;p style=&quot;margin-bottom: 0cm&quot;&gt;de productos en una tienda en línea.&lt;/p&gt;&lt;p style=&quot;margin-bottom: 0cm&quot;&gt;Paso 1: Identificación de Clases&lt;/p&gt;&lt;p style=&quot;margin-bottom: 0cm&quot;&gt;Primero, identifiquemos las clases principales que necesitamos en el sistema:&lt;/p&gt;&lt;p style=&quot;margin-bottom: 0cm&quot;&gt;1. Cliente, Pedido, Producto, Categoría, Dirección:&lt;/p&gt;&lt;p style=&quot;margin-bottom: 0cm&quot;&gt;Paso 2: Definición de Atributos y Métodos&lt;/p&gt;&lt;p style=&quot;margin-bottom: 0cm&quot;&gt;Vamos a definir algunos atributo:&lt;/p&gt;&lt;p style=&quot;margin-bottom: 0cm&quot;&gt;1. Cliente:&lt;/p&gt;&lt;p style=&quot;margin-bottom: 0cm&quot;&gt;&lt;span style=&quot;white-space: pre;&quot;&gt;&#x9;&lt;/span&gt;• Atributos: Nombre, Email, Teléfono.&lt;/p&gt;&lt;p style=&quot;margin-bottom: 0cm&quot;&gt;2. Pedido :&lt;/p&gt;&lt;p style=&quot;margin-bottom: 0cm&quot;&gt;&lt;span style=&quot;white-space: pre;&quot;&gt;&#x9;&lt;/span&gt;• Atributos: Fecha, Estado, Total.&lt;/p&gt;&lt;p style=&quot;margin-bottom: 0cm&quot;&gt;3. Producto :&lt;/p&gt;&lt;p style=&quot;margin-bottom: 0cm&quot;&gt;&lt;span style=&quot;white-space: pre;&quot;&gt;&#x9;&lt;/span&gt;• Atributos: Nombre, Precio, Descripción..&lt;/p&gt;&lt;p style=&quot;margin-bottom: 0cm&quot;&gt;4. Categoría:&lt;/p&gt;&lt;p style=&quot;margin-bottom: 0cm&quot;&gt;&lt;span style=&quot;white-space: pre;&quot;&gt;&#x9;&lt;/span&gt;• Atributos: Nombre, Descripción.&lt;/p&gt;&lt;p style=&quot;margin-bottom: 0cm&quot;&gt;5. Dirección:&lt;/p&gt;&lt;p style=&quot;margin-bottom: 0cm&quot;&gt;&lt;span style=&quot;white-space: pre;&quot;&gt;&#x9;&lt;/span&gt;• Atributos: Calle, Ciudad, Código Postal&lt;/p&gt;&lt;/li&gt;&lt;/ul&gt;" style="text;html=1;align=left;verticalAlign=middle;resizable=0;points=[];autosize=1;strokeColor=none;fillColor=none;" parent="1" vertex="1">
          <mxGeometry x="68" y="-310" width="640" height="550" as="geometry" />
        </mxCell>
        <mxCell id="ggdyMHVkOK_L9-JbVkDp-15" value="Pedido" style="swimlane;fontStyle=1;align=center;verticalAlign=top;childLayout=stackLayout;horizontal=1;startSize=26;horizontalStack=0;resizeParent=1;resizeParentMax=0;resizeLast=0;collapsible=1;marginBottom=0;whiteSpace=wrap;html=1;" parent="1" vertex="1">
          <mxGeometry x="667" y="280" width="240" height="108" as="geometry" />
        </mxCell>
        <mxCell id="ggdyMHVkOK_L9-JbVkDp-32" value="+ fecha: string&lt;div&gt;+ estado: bool&lt;/div&gt;&lt;div&gt;+ total: double&lt;/div&gt;&lt;div&gt;+ arrayProductos(producto: Producto)&lt;/div&gt;" style="text;strokeColor=none;fillColor=none;align=left;verticalAlign=top;spacingLeft=4;spacingRight=4;overflow=hidden;rotatable=0;points=[[0,0.5],[1,0.5]];portConstraint=eastwest;whiteSpace=wrap;html=1;" parent="ggdyMHVkOK_L9-JbVkDp-15" vertex="1">
          <mxGeometry y="26" width="240" height="74" as="geometry" />
        </mxCell>
        <mxCell id="ggdyMHVkOK_L9-JbVkDp-17" value="" style="line;strokeWidth=1;fillColor=none;align=left;verticalAlign=middle;spacingTop=-1;spacingLeft=3;spacingRight=3;rotatable=0;labelPosition=right;points=[];portConstraint=eastwest;strokeColor=inherit;" parent="ggdyMHVkOK_L9-JbVkDp-15" vertex="1">
          <mxGeometry y="100" width="240" height="8" as="geometry" />
        </mxCell>
        <mxCell id="ggdyMHVkOK_L9-JbVkDp-35" value="" style="endArrow=diamondThin;endFill=0;endSize=24;html=1;rounded=0;exitX=0.5;exitY=0;exitDx=0;exitDy=0;" parent="1" source="ggdyMHVkOK_L9-JbVkDp-45" target="ggdyMHVkOK_L9-JbVkDp-15" edge="1">
          <mxGeometry width="160" relative="1" as="geometry">
            <mxPoint x="787" y="580" as="sourcePoint" />
            <mxPoint x="787" y="407" as="targetPoint" />
          </mxGeometry>
        </mxCell>
        <mxCell id="ggdyMHVkOK_L9-JbVkDp-37" value="pertenecer" style="text;html=1;align=center;verticalAlign=middle;resizable=0;points=[];autosize=1;strokeColor=none;fillColor=none;" parent="1" vertex="1">
          <mxGeometry x="592" y="293" width="80" height="30" as="geometry" />
        </mxCell>
        <mxCell id="ggdyMHVkOK_L9-JbVkDp-38" value="1..*" style="text;html=1;align=center;verticalAlign=middle;resizable=0;points=[];autosize=1;strokeColor=none;fillColor=none;" parent="1" vertex="1">
          <mxGeometry x="480" y="310" width="40" height="30" as="geometry" />
        </mxCell>
        <mxCell id="ggdyMHVkOK_L9-JbVkDp-39" value="1" style="text;html=1;align=center;verticalAlign=middle;resizable=0;points=[];autosize=1;strokeColor=none;fillColor=none;" parent="1" vertex="1">
          <mxGeometry x="632" y="310" width="30" height="30" as="geometry" />
        </mxCell>
        <mxCell id="ggdyMHVkOK_L9-JbVkDp-40" value="realizar" style="text;html=1;align=center;verticalAlign=middle;resizable=0;points=[];autosize=1;strokeColor=none;fillColor=none;" parent="1" vertex="1">
          <mxGeometry x="481" y="294" width="60" height="30" as="geometry" />
        </mxCell>
        <mxCell id="ggdyMHVkOK_L9-JbVkDp-41" value="0..*" style="text;html=1;align=center;verticalAlign=middle;resizable=0;points=[];autosize=1;strokeColor=none;fillColor=none;" parent="1" vertex="1">
          <mxGeometry x="785" y="569" width="40" height="30" as="geometry" />
        </mxCell>
        <mxCell id="ggdyMHVkOK_L9-JbVkDp-42" value="1..*" style="text;html=1;align=center;verticalAlign=middle;resizable=0;points=[];autosize=1;strokeColor=none;fillColor=none;" parent="1" vertex="1">
          <mxGeometry x="785" y="390" width="40" height="30" as="geometry" />
        </mxCell>
        <mxCell id="ggdyMHVkOK_L9-JbVkDp-45" value="Producto" style="swimlane;fontStyle=1;align=center;verticalAlign=top;childLayout=stackLayout;horizontal=1;startSize=26;horizontalStack=0;resizeParent=1;resizeParentMax=0;resizeLast=0;collapsible=1;marginBottom=0;whiteSpace=wrap;html=1;" parent="1" vertex="1">
          <mxGeometry x="709" y="599" width="156" height="88" as="geometry" />
        </mxCell>
        <mxCell id="ggdyMHVkOK_L9-JbVkDp-46" value="+ nombre: string&lt;div&gt;+ precio: double&lt;/div&gt;&lt;div&gt;+ descripcion: string&lt;/div&gt;" style="text;strokeColor=none;fillColor=none;align=left;verticalAlign=top;spacingLeft=4;spacingRight=4;overflow=hidden;rotatable=0;points=[[0,0.5],[1,0.5]];portConstraint=eastwest;whiteSpace=wrap;html=1;" parent="ggdyMHVkOK_L9-JbVkDp-45" vertex="1">
          <mxGeometry y="26" width="156" height="54" as="geometry" />
        </mxCell>
        <mxCell id="ggdyMHVkOK_L9-JbVkDp-47" value="" style="line;strokeWidth=1;fillColor=none;align=left;verticalAlign=middle;spacingTop=-1;spacingLeft=3;spacingRight=3;rotatable=0;labelPosition=right;points=[];portConstraint=eastwest;strokeColor=inherit;" parent="ggdyMHVkOK_L9-JbVkDp-45" vertex="1">
          <mxGeometry y="80" width="156" height="8" as="geometry" />
        </mxCell>
        <mxCell id="ggdyMHVkOK_L9-JbVkDp-49" value="Dirección" style="swimlane;fontStyle=1;align=center;verticalAlign=top;childLayout=stackLayout;horizontal=1;startSize=26;horizontalStack=0;resizeParent=1;resizeParentMax=0;resizeLast=0;collapsible=1;marginBottom=0;whiteSpace=wrap;html=1;" parent="1" vertex="1">
          <mxGeometry x="-55" y="290" width="156" height="88" as="geometry" />
        </mxCell>
        <mxCell id="ggdyMHVkOK_L9-JbVkDp-50" value="+ calle: string&lt;div&gt;+ ciudad: string&lt;/div&gt;&lt;div&gt;+ codigoPostal: int&lt;/div&gt;" style="text;strokeColor=none;fillColor=none;align=left;verticalAlign=top;spacingLeft=4;spacingRight=4;overflow=hidden;rotatable=0;points=[[0,0.5],[1,0.5]];portConstraint=eastwest;whiteSpace=wrap;html=1;" parent="ggdyMHVkOK_L9-JbVkDp-49" vertex="1">
          <mxGeometry y="26" width="156" height="54" as="geometry" />
        </mxCell>
        <mxCell id="ggdyMHVkOK_L9-JbVkDp-51" value="" style="line;strokeWidth=1;fillColor=none;align=left;verticalAlign=middle;spacingTop=-1;spacingLeft=3;spacingRight=3;rotatable=0;labelPosition=right;points=[];portConstraint=eastwest;strokeColor=inherit;" parent="ggdyMHVkOK_L9-JbVkDp-49" vertex="1">
          <mxGeometry y="80" width="156" height="8" as="geometry" />
        </mxCell>
        <mxCell id="ggdyMHVkOK_L9-JbVkDp-56" value="pertenecer" style="text;html=1;align=center;verticalAlign=middle;resizable=0;points=[];autosize=1;strokeColor=none;fillColor=none;" parent="1" vertex="1">
          <mxGeometry x="636" y="595" width="80" height="30" as="geometry" />
        </mxCell>
        <mxCell id="ggdyMHVkOK_L9-JbVkDp-57" value="1..*" style="text;html=1;align=center;verticalAlign=middle;resizable=0;points=[];autosize=1;strokeColor=none;fillColor=none;" parent="1" vertex="1">
          <mxGeometry x="547" y="614" width="40" height="30" as="geometry" />
        </mxCell>
        <mxCell id="ggdyMHVkOK_L9-JbVkDp-58" value="1" style="text;html=1;align=center;verticalAlign=middle;resizable=0;points=[];autosize=1;strokeColor=none;fillColor=none;" parent="1" vertex="1">
          <mxGeometry x="682" y="612" width="30" height="30" as="geometry" />
        </mxCell>
        <mxCell id="ggdyMHVkOK_L9-JbVkDp-59" value="tener" style="text;html=1;align=center;verticalAlign=middle;resizable=0;points=[];autosize=1;strokeColor=none;fillColor=none;" parent="1" vertex="1">
          <mxGeometry x="547" y="595" width="50" height="30" as="geometry" />
        </mxCell>
        <mxCell id="MId8j8VxuTTFPwN-5w4--1" style="edgeStyle=orthogonalEdgeStyle;rounded=0;orthogonalLoop=1;jettySize=auto;html=1;endArrow=diamondThin;endFill=0;endSize=24;" edge="1" parent="1" source="ggdyMHVkOK_L9-JbVkDp-50" target="ggdyMHVkOK_L9-JbVkDp-6">
          <mxGeometry relative="1" as="geometry">
            <mxPoint x="87" y="420" as="sourcePoint" />
            <mxPoint x="297" y="420" as="targetPoint" />
          </mxGeometry>
        </mxCell>
        <mxCell id="MId8j8VxuTTFPwN-5w4--2" value="1..*" style="text;html=1;align=center;verticalAlign=middle;resizable=0;points=[];autosize=1;strokeColor=none;fillColor=none;" vertex="1" parent="1">
          <mxGeometry x="222" y="314" width="40" height="30" as="geometry" />
        </mxCell>
        <mxCell id="MId8j8VxuTTFPwN-5w4--3" value="tener" style="text;html=1;align=center;verticalAlign=middle;resizable=0;points=[];autosize=1;strokeColor=none;fillColor=none;" vertex="1" parent="1">
          <mxGeometry x="213" y="294" width="50" height="30" as="geometry" />
        </mxCell>
        <mxCell id="MId8j8VxuTTFPwN-5w4--4" value="1..*" style="text;html=1;align=center;verticalAlign=middle;resizable=0;points=[];autosize=1;strokeColor=none;fillColor=none;" vertex="1" parent="1">
          <mxGeometry x="94" y="314" width="40" height="30" as="geometry" />
        </mxCell>
        <mxCell id="MId8j8VxuTTFPwN-5w4--8" value="pertenecer" style="text;html=1;align=center;verticalAlign=middle;resizable=0;points=[];autosize=1;strokeColor=none;fillColor=none;" vertex="1" parent="1">
          <mxGeometry x="94" y="295" width="80" height="30" as="geometry" />
        </mxCell>
        <mxCell id="MId8j8VxuTTFPwN-5w4--9" style="edgeStyle=orthogonalEdgeStyle;rounded=0;orthogonalLoop=1;jettySize=auto;html=1;endArrow=none;endFill=0;" edge="1" parent="1" source="ggdyMHVkOK_L9-JbVkDp-31" target="ggdyMHVkOK_L9-JbVkDp-45">
          <mxGeometry relative="1" as="geometry" />
        </mxCell>
      </root>
    </mxGraphModel>
  </diagram>
</mxfile>
